<?xml version="1.0" encoding="UTF-8"?>
<svg version="1.1" xmlns="http://www.w3.org/2000/svg" width="300" height="62">
<path d="M0 0 C15.18 0 30.36 0 46 0 C46 9 46 9 44.1484375 12.0390625 C38.99419389 15.24927378 33.751237 14.48884056 27.8359375 14.2734375 C22.59846643 14.2734375 19.71890934 14.64819669 15.8984375 18.4140625 C14.29500643 20.25002681 13.08944796 21.82110408 12 24 C14.64 24 17.28 24 20 24 C20.66 25.32 21.32 26.64 22 28 C21.45730469 28.53109375 20.91460938 29.0621875 20.35546875 29.609375 C19.64003906 30.31578125 18.92460937 31.0221875 18.1875 31.75 C17.47980469 32.44609375 16.77210937 33.1421875 16.04296875 33.859375 C13.96718507 35.93721763 13.96718507 35.93721763 12.36328125 38.265625 C11.91339844 38.83796875 11.46351562 39.4103125 11 40 C10.34 40 9.68 40 9 40 C11.11326526 44.70842624 11.11326526 44.70842624 15 48 C18.77396956 47.74077785 20.53644771 45.78246542 23.0625 43.125 C23.73410156 42.42632812 24.40570312 41.72765625 25.09765625 41.0078125 C25.72542969 40.34523437 26.35320313 39.68265625 27 39 C27.99664994 37.99666113 28.99531624 36.9952942 30 36 C33 37 33 37 34 39 C34.04022391 41.3329866 34.04320247 43.66706666 34 46 C34.53109375 45.4946875 35.0621875 44.989375 35.609375 44.46875 C36.66898438 43.49421875 36.66898438 43.49421875 37.75 42.5 C38.44609375 41.8503125 39.1421875 41.200625 39.859375 40.53125 C42 39 42 39 46 39 C46.56886257 53.20049517 46.56886257 53.20049517 43 58 C40.11356541 60.9769452 38.02895601 62.25170704 33.9440918 62.45410156 C32.36232623 62.4531097 30.78046074 62.43133198 29.19921875 62.390625 C28.45724243 62.38659668 27.71526611 62.38256836 26.95080566 62.37841797 C24.19611658 62.35759069 21.44178179 62.3017451 18.6875 62.25 C12.520625 62.1675 6.35375 62.085 0 62 C0 41.54 0 21.08 0 0 Z " fill="#0053C9" transform="translate(0,0)"/>
<path d="M0 0 C11.5365372 -0.61619487 11.5365372 -0.61619487 16.5625 1.5 C21.77938359 6.85064983 23.87474368 14.08187172 26.015625 21.1015625 C26.27631775 21.94165863 26.5370105 22.78175476 26.80560303 23.64730835 C27.3501338 25.4093038 27.89112753 27.17239595 28.42871094 28.93652344 C29.25092523 31.62802872 30.08958702 34.31403113 30.9296875 37 C31.45932996 38.72104778 31.98800938 40.44239228 32.515625 42.1640625 C32.8905307 43.35958237 32.8905307 43.35958237 33.27301025 44.57925415 C34.54882038 48.81366196 35.47035893 52.52826604 35 57 C33.0625 59.875 33.0625 59.875 30 62 C26.87327402 62.41306246 24.17628148 62.23703593 21 62 C19.68 56.72 18.36 51.44 17 46 C11.72 46 6.44 46 1 46 C0.566875 48.289375 0.566875 48.289375 0.125 50.625 C-0.65297686 54.5371122 -1.61823852 58.24950455 -3 62 C-10.07858428 62.47990402 -10.07858428 62.47990402 -14 60.4375 C-16.1901337 57.76827456 -16.37399638 56.54344123 -16.26950073 53.17276001 C-15.69353195 48.52920332 -14.15804656 44.11588893 -12.75390625 39.66796875 C-12.42333725 38.59501053 -12.09276825 37.52205231 -11.75218201 36.4165802 C-10.6981153 33.00397031 -9.63029605 29.59583572 -8.5625 26.1875 C-7.8474457 23.87591739 -7.13324354 21.56407099 -6.41992188 19.25195312 C-5.11504089 15.03776063 -3.80945081 10.8238193 -2.49047852 6.61401367 C-2.22622574 5.76908859 -1.96197296 4.92416351 -1.68971252 4.05363464 C-1 2 -1 2 0 0 Z M8 17 C7.32678716 19.24805002 6.66165877 21.49852224 6 23.75 C5.62875 25.00296875 5.2575 26.2559375 4.875 27.546875 C3.83624628 31.05253232 3.83624628 31.05253232 4 35 C7.63 35 11.26 35 15 35 C14.21776638 32.18455608 13.42477877 29.37295854 12.625 26.5625 C12.40328125 25.76005859 12.1815625 24.95761719 11.953125 24.13085938 C11.73398438 23.36708984 11.51484375 22.60332031 11.2890625 21.81640625 C10.99056396 20.75595093 10.99056396 20.75595093 10.68603516 19.67407227 C10.12838023 17.79000373 10.12838023 17.79000373 8 17 Z " fill="#0153C6" transform="translate(173,0)"/>
<path d="M0 0 C12.87 0 25.74 0 39 0 C39 8 39 8 37.578125 10.94921875 C33.80250714 13.95255114 30.45174346 13.77944087 25.75 13.8125 C24.48929687 13.85020508 24.48929687 13.85020508 23.203125 13.88867188 C21.13591772 13.94739935 19.06790889 13.97659774 17 14 C16.34 17.3 15.68 20.6 15 24 C22.26 24 29.52 24 37 24 C37 26.97 37 29.94 37 33 C33.41641555 36.58358445 31.25390222 36.46742196 26.5 36.5625 C20.96784409 36.63963445 20.96784409 36.63963445 16 39 C15.67 42.3 15.34 45.6 15 49 C22.92 49 30.84 49 39 49 C39 52.3 39 55.6 39 59 C36 62 36 62 32.35473633 62.34057617 C30.84708463 62.33982796 29.33937737 62.32333084 27.83203125 62.29296875 C26.77502014 62.28843689 26.77502014 62.28843689 25.69665527 62.28381348 C23.06845418 62.26813664 20.44046214 62.22625241 17.8125 62.1875 C11.934375 62.125625 6.05625 62.06375 0 62 C0 41.54 0 21.08 0 0 Z " fill="#0154C7" transform="translate(261,0)"/>
<path d="M0 0 C1.34771484 -0.01836914 1.34771484 -0.01836914 2.72265625 -0.03710938 C7.2903227 -0.04722976 10.98603448 -0.00320769 15.125 2.1875 C14.52458666 9.51254276 14.52458666 9.51254276 13.08203125 11.94921875 C9.49684695 14.21768865 5.0314741 13.28926908 0.9296875 13.0703125 C-3.19859497 12.90348713 -3.19859497 12.90348713 -6.9375 14.4375 C-8.06882493 16.15315609 -8.06882493 16.15315609 -7.65673828 18.18066406 C-7.05764484 20.2792482 -7.05764484 20.2792482 -5.31201172 21.24902344 C-4.64959473 21.51231445 -3.98717773 21.77560547 -3.3046875 22.046875 C-2.57572266 22.35407471 -1.84675781 22.66127441 -1.09570312 22.9777832 C-0.32162109 23.29448975 0.45246094 23.61119629 1.25 23.9375 C7.94348656 26.86138713 13.30555816 29.66262019 17.125 36.1875 C18.8347368 41.3167104 18.77117595 46.24897216 17.0625 51.375 C13.53699481 56.49266883 9.15576447 60.41662599 3.125 62.1875 C-0.14961347 62.49691817 -3.40017085 62.51209466 -6.6875 62.5 C-7.55181641 62.51611328 -8.41613281 62.53222656 -9.30664062 62.54882812 C-15.1760059 62.55325783 -19.50063621 61.55321879 -24.875 59.1875 C-23.44306723 51.9085084 -23.44306723 51.9085084 -21.25 49.125 C-18.33426492 47.97405194 -16.14794068 48.33812798 -13.1015625 48.8515625 C-10.73526279 49.20858316 -8.45469802 49.33603912 -6.0625 49.375 C-5.33417969 49.38917969 -4.60585937 49.40335938 -3.85546875 49.41796875 C-1.5545978 49.30236857 -1.5545978 49.30236857 1.125 47.1875 C1.3752157 44.10384129 1.3752157 44.10384129 1.125 41.1875 C0.01125 40.630625 -1.1025 40.07375 -2.25 39.5 C-2.97703125 39.13132813 -3.7040625 38.76265625 -4.453125 38.3828125 C-6.09328313 37.5733151 -7.75068424 36.79800854 -9.421875 36.0546875 C-15.2095952 33.40636704 -19.39234465 30.61067549 -22.875 25.1875 C-24.65551245 19.84596265 -24.58009123 15.11661611 -22.3125 10 C-17.33211892 0.96416575 -9.43133485 0.00670792 0 0 Z " fill="#0153C6" transform="translate(76.875,-0.1875)"/>
<path d="M0 0 C1.41152344 -0.01160156 1.41152344 -0.01160156 2.8515625 -0.0234375 C3.7590625 -0.02085938 4.6665625 -0.01828125 5.6015625 -0.015625 C6.42221191 -0.01336914 7.24286133 -0.01111328 8.08837891 -0.00878906 C10.57794985 0.27296891 12.21921909 1.00416277 14.375 2.25 C13.88688052 9.69382213 13.88688052 9.69382213 11.75 12.015625 C8.53740236 13.68533035 6.21974137 13.40334146 2.625 13.1875 C-4.59320981 13.02976597 -9.20499594 14.05799621 -14.5 19 C-17.71566329 25.43132658 -18.16834731 31.31779832 -16.625 38.25 C-14.76357257 43.44240284 -12.40319541 45.56226508 -7.625 48.25 C-3.11814765 49.75228412 1.31576246 49.10756805 6.02734375 48.89453125 C9.375 49.25 9.375 49.25 11.76953125 51.02734375 C13.92448917 54.01072832 14.09663265 56.63122439 14.375 60.25 C6.50030074 64.39633846 -6.2295112 63.67683459 -14.72607422 61.78125 C-23.75512961 58.80501488 -28.1569286 52.77479757 -32.5 44.8125 C-35.06971048 37.0572061 -35.15502937 25.83884421 -32.0625 18.1875 C-27.93652376 10.66451859 -22.02928135 4.57928716 -14.10546875 1.1640625 C-9.36435834 -0.08107761 -4.87978674 -0.04044022 0 0 Z " fill="#0152C5" transform="translate(135.625,-0.25)"/>
<path d="M0 0 C11 0 11 0 13.64941406 1.37402344 C15.76831227 5.49384793 15.60341197 9.44471934 15.609375 14.015625 C15.63417938 15.47207428 15.63417938 15.47207428 15.65948486 16.95794678 C15.70802119 20.05536183 15.72934857 23.15228573 15.75 26.25 C15.77815493 28.35158729 15.80808168 30.45315164 15.83984375 32.5546875 C15.9137819 37.70308458 15.96332229 42.85120808 16 48 C16.55461914 48.0093457 17.10923828 48.01869141 17.68066406 48.02832031 C20.20466481 48.08215722 22.72683814 48.16577254 25.25 48.25 C26.12269531 48.26417969 26.99539062 48.27835938 27.89453125 48.29296875 C31.65951414 48.43667039 34.301414 48.60260078 37.609375 50.484375 C39 53 39 53 39 62 C26.13 62 13.26 62 0 62 C0 41.54 0 21.08 0 0 Z " fill="#0153C7" transform="translate(215,0)"/>
<path d="M0 0 C12.87 0 25.74 0 39 0 C39 8 39 8 37 10.5 C36.34 10.995 35.68 11.49 35 12 C35.88981825 8.29242397 36.94928415 4.67750548 38 1 C26.12 1.33 14.24 1.66 2 2 C1.67 5.63 1.34 9.26 1 13 C0.67 13 0.34 13 0 13 C0 8.71 0 4.42 0 0 Z " fill="#004ABA" transform="translate(261,0)"/>
<path d="M0 0 C0.99 0.33 1.98 0.66 3 1 C3 5.29 3 9.58 3 14 C2.67 14 2.34 14 2 14 C1.67 10.7 1.34 7.4 1 4 C-0.60875 5.2375 -0.60875 5.2375 -2.25 6.5 C-5.30197567 8.84767359 -5.86356447 9 -10 9 C-10 6.36 -10 3.72 -10 1 C-9.67 1 -9.34 1 -9 1 C-9 3.31 -9 5.62 -9 8 C-7.68712379 6.85459775 -6.37470979 5.70866567 -5.0625 4.5625 C-4.33160156 3.92441406 -3.60070313 3.28632812 -2.84765625 2.62890625 C-1.87860647 1.77458541 -0.91348825 0.91348825 0 0 Z " fill="#003EA1" transform="translate(43,38)"/>
<path d="M0 0 C1.21752584 3.65257751 1.02957396 6.71202922 0.9375 10.52734375 C0.99639212 12.85726329 1.33907161 14.77453018 2 17 C1.34 17.33 0.68 17.66 0 18 C-2.17812141 13.64375718 -2.50037739 9.77283049 -2 5 C-1 2 -1 2 0 0 Z " fill="#0344A8" transform="translate(55,9)"/>
<path d="M0 0 C1 3 1 3 -0.0625 5.625 C-2 8 -2 8 -5.1875 8.8125 C-6.115625 8.874375 -7.04375 8.93625 -8 9 C-7.01 8.67 -6.02 8.34 -5 8 C-3.94978897 6.15028304 -3.94978897 6.15028304 -3 4 C-2.02418241 2.64886795 -1.02970259 1.31053056 0 0 Z " fill="#024CB1" transform="translate(149,4)"/>
<path d="M0 0 C0.66 0 1.32 0 2 0 C1.71572583 1.58467728 1.42225182 3.1677057 1.125 4.75 C0.88136719 6.07257812 0.88136719 6.07257812 0.6328125 7.421875 C0.03203736 9.86947744 -0.77997117 11.80599857 -2 14 C-2.25328119 8.93437617 -1.33583899 4.84241633 0 0 Z " fill="#0547AF" transform="translate(172,46)"/>
<path d="M0 0 C2.21399303 3.79541663 3.00980198 7.75629421 4 12 C2.5 10.625 2.5 10.625 1 9 C1 8.34 1 7.68 1 7 C0.34 6.67 -0.32 6.34 -1 6 C-0.67 4.02 -0.34 2.04 0 0 Z " fill="#0049AC" transform="translate(201,31)"/>
<path d="M0 0 C1.90318884 2.85478326 2.4619099 4.41941308 3.125 7.6875 C3.29257813 8.49574219 3.46015625 9.30398437 3.6328125 10.13671875 C3.75398437 10.75160156 3.87515625 11.36648437 4 12 C3.01 11.67 2.02 11.34 1 11 C0.67 7.37 0.34 3.74 0 0 Z " fill="#0048B0" transform="translate(196,15)"/>
<path d="M0 0 C0.99 0.33 1.98 0.66 3 1 C3 3.64 3 6.28 3 9 C2.67 9 2.34 9 2 9 C2 7.35 2 5.7 2 4 C0.68 3.67 -0.64 3.34 -2 3 C-2 2.34 -2 1.68 -2 1 C-1.34 0.67 -0.68 0.34 0 0 Z " fill="#0344AF" transform="translate(30,36)"/>
</svg>
